<?xml version="1.0" standalone="no"?>
<!DOCTYPE svg PUBLIC "-//W3C//DTD SVG 20010904//EN"
 "http://www.w3.org/TR/2001/REC-SVG-20010904/DTD/svg10.dtd">
<svg version="1.0" xmlns="http://www.w3.org/2000/svg"
 width="2512.000000pt" height="1696.000000pt" viewBox="0 0 2512.000000 1696.000000"
 preserveAspectRatio="xMidYMid meet">

<g transform="translate(0.000000,1696.000000) scale(0.100000,-0.100000)"
fill="#000000" stroke="none">
<path d="M0 8480 l0 -8480 12560 0 12560 0 0 8480 0 8480 -12560 0 -12560 0 0
-8480z m10925 3304 c293 -29 582 -88 855 -176 l135 -44 2 -622 c1 -342 0 -622
-2 -622 -2 0 -44 24 -92 53 -396 239 -727 348 -1143 377 -382 27 -699 -31
-901 -165 -218 -146 -287 -395 -174 -634 27 -57 55 -93 118 -156 97 -97 189
-159 375 -254 131 -66 202 -97 497 -216 645 -261 974 -461 1214 -740 106 -123
177 -236 236 -376 88 -209 125 -411 125 -687 0 -225 -23 -379 -87 -576 -191
-593 -732 -994 -1518 -1125 -238 -40 -324 -46 -660 -45 -275 0 -362 4 -525 22
-446 51 -796 143 -1097 288 l-113 54 0 650 c0 612 1 650 18 650 9 0 71 -39
137 -86 163 -117 256 -171 447 -264 250 -121 435 -177 773 -231 124 -21 507
-18 620 4 439 85 641 280 622 597 -10 173 -105 332 -273 456 -170 126 -305
193 -854 421 -986 410 -1393 835 -1481 1543 -26 213 7 550 72 743 36 105 117
268 177 357 65 97 205 247 307 330 359 292 839 453 1460 490 180 11 538 3 730
-16z m3096 -1401 c0 -843 4 -1332 10 -1323 72 115 348 557 434 695 118 190
194 311 420 670 76 121 231 369 345 550 114 182 265 422 337 535 l129 205 767
3 c422 1 767 0 767 -3 0 -11 -206 -315 -541 -798 -58 -83 -188 -271 -289 -417
-183 -265 -279 -403 -520 -750 -71 -102 -206 -297 -300 -435 -94 -137 -196
-284 -225 -326 l-55 -76 58 -84 c234 -338 622 -902 789 -1149 110 -162 278
-409 374 -547 662 -961 830 -1213 827 -1238 -3 -20 -6 -20 -796 -23 l-792 -2
-76 117 c-41 65 -144 226 -228 358 -84 132 -205 321 -269 420 -64 99 -152 236
-195 305 -44 69 -146 231 -229 360 -82 129 -201 316 -265 415 -63 99 -170 268
-237 375 -68 107 -149 234 -180 282 l-56 87 -5 -1357 -5 -1357 -667 -3 -668
-2 0 2925 0 2925 670 0 670 0 1 -1337z m10009 -8836 c36 -123 139 -259 250
-329 48 -30 124 -64 182 -82 29 -9 10 -32 -35 -46 -123 -36 -259 -139 -329
-250 -30 -48 -64 -124 -82 -182 -9 -29 -32 -10 -46 35 -36 123 -139 259 -250
329 -48 30 -124 64 -182 82 -29 9 -10 32 35 46 123 36 259 139 329 250 30 48
64 124 82 182 9 29 32 10 46 -35z"/>
</g>
</svg>
